<mxfile host="app.diagrams.net" agent="Mozilla/5.0 (Windows NT 10.0; Win64; x64) AppleWebKit/537.36 (KHTML, like Gecko) Chrome/134.0.0.0 Safari/537.36" version="26.0.16">
  <diagram name="Page-1" id="61qFC4lJC0Ic-hGYzS37">
    <mxGraphModel dx="1105" dy="1695" grid="1" gridSize="10" guides="1" tooltips="1" connect="1" arrows="1" fold="1" page="1" pageScale="1" pageWidth="850" pageHeight="1100" math="0" shadow="0">
      <root>
        <mxCell id="0" />
        <mxCell id="1" parent="0" />
        <mxCell id="22vK7RhumsUilptwi0Rh-1" value="Capture frame" style="rounded=0;whiteSpace=wrap;html=1;" parent="1" vertex="1">
          <mxGeometry x="215" y="60" width="120" height="30" as="geometry" />
        </mxCell>
        <mxCell id="22vK7RhumsUilptwi0Rh-3" value="YOLOv11n License Plate Detection Model" style="rounded=0;whiteSpace=wrap;html=1;" parent="1" vertex="1">
          <mxGeometry x="215" y="140" width="120" height="60" as="geometry" />
        </mxCell>
        <mxCell id="22vK7RhumsUilptwi0Rh-4" value="License plate detected?" style="rhombus;whiteSpace=wrap;html=1;" parent="1" vertex="1">
          <mxGeometry x="220" y="250" width="110" height="80" as="geometry" />
        </mxCell>
        <mxCell id="22vK7RhumsUilptwi0Rh-8" value="image stream" style="endArrow=classic;html=1;rounded=0;entryX=0.5;entryY=0;entryDx=0;entryDy=0;" parent="1" target="22vK7RhumsUilptwi0Rh-1" edge="1">
          <mxGeometry width="50" height="50" relative="1" as="geometry">
            <mxPoint x="275" as="sourcePoint" />
            <mxPoint x="300" y="170" as="targetPoint" />
          </mxGeometry>
        </mxCell>
        <mxCell id="22vK7RhumsUilptwi0Rh-9" value="image frame" style="endArrow=classic;html=1;rounded=0;entryX=0.5;entryY=0;entryDx=0;entryDy=0;exitX=0.5;exitY=1;exitDx=0;exitDy=0;" parent="1" source="22vK7RhumsUilptwi0Rh-1" target="22vK7RhumsUilptwi0Rh-3" edge="1">
          <mxGeometry width="50" height="50" relative="1" as="geometry">
            <mxPoint x="250" y="220" as="sourcePoint" />
            <mxPoint x="300" y="170" as="targetPoint" />
          </mxGeometry>
        </mxCell>
        <mxCell id="22vK7RhumsUilptwi0Rh-10" value="" style="endArrow=classic;html=1;rounded=0;entryX=0.5;entryY=0;entryDx=0;entryDy=0;exitX=0.5;exitY=1;exitDx=0;exitDy=0;" parent="1" source="22vK7RhumsUilptwi0Rh-3" target="22vK7RhumsUilptwi0Rh-4" edge="1">
          <mxGeometry width="50" height="50" relative="1" as="geometry">
            <mxPoint x="250" y="220" as="sourcePoint" />
            <mxPoint x="300" y="170" as="targetPoint" />
          </mxGeometry>
        </mxCell>
        <mxCell id="tCKhDqb6qx6gosObigJ4-3" value="Cache frame for tracking" style="rounded=0;whiteSpace=wrap;html=1;" vertex="1" parent="1">
          <mxGeometry x="425" y="52.5" width="110" height="45" as="geometry" />
        </mxCell>
        <mxCell id="tCKhDqb6qx6gosObigJ4-5" value="Tracking lost?" style="rhombus;whiteSpace=wrap;html=1;" vertex="1" parent="1">
          <mxGeometry x="440" y="120" width="80" height="80" as="geometry" />
        </mxCell>
        <mxCell id="tCKhDqb6qx6gosObigJ4-7" value="Device direction in or out?" style="rhombus;whiteSpace=wrap;html=1;" vertex="1" parent="1">
          <mxGeometry x="440" y="230" width="80" height="80" as="geometry" />
        </mxCell>
        <mxCell id="tCKhDqb6qx6gosObigJ4-8" value="Decrement occupancy in lot database" style="rounded=0;whiteSpace=wrap;html=1;" vertex="1" parent="1">
          <mxGeometry x="340" y="360" width="110" height="50" as="geometry" />
        </mxCell>
        <mxCell id="tCKhDqb6qx6gosObigJ4-9" value="Increment occupancy in lot database" style="rounded=0;whiteSpace=wrap;html=1;" vertex="1" parent="1">
          <mxGeometry x="510" y="360" width="110" height="50" as="geometry" />
        </mxCell>
        <mxCell id="tCKhDqb6qx6gosObigJ4-10" value="Transmit license plate with highest confidence for removal" style="rounded=0;whiteSpace=wrap;html=1;" vertex="1" parent="1">
          <mxGeometry x="335" y="440" width="120" height="60" as="geometry" />
        </mxCell>
        <mxCell id="tCKhDqb6qx6gosObigJ4-11" value="Transmit license plate with highest confidence for addition" style="rounded=0;whiteSpace=wrap;html=1;" vertex="1" parent="1">
          <mxGeometry x="505" y="440" width="120" height="60" as="geometry" />
        </mxCell>
        <mxCell id="tCKhDqb6qx6gosObigJ4-12" value="Yes" style="endArrow=classic;html=1;rounded=0;exitX=1;exitY=0.5;exitDx=0;exitDy=0;entryX=0;entryY=0.5;entryDx=0;entryDy=0;" edge="1" parent="1" source="22vK7RhumsUilptwi0Rh-4" target="tCKhDqb6qx6gosObigJ4-3">
          <mxGeometry x="-0.871" width="50" height="50" relative="1" as="geometry">
            <mxPoint x="350" y="270" as="sourcePoint" />
            <mxPoint x="400" y="220" as="targetPoint" />
            <Array as="points">
              <mxPoint x="380" y="290" />
              <mxPoint x="380" y="75" />
            </Array>
            <mxPoint as="offset" />
          </mxGeometry>
        </mxCell>
        <mxCell id="tCKhDqb6qx6gosObigJ4-13" value="" style="endArrow=classic;html=1;rounded=0;exitX=0.5;exitY=1;exitDx=0;exitDy=0;entryX=0.5;entryY=0;entryDx=0;entryDy=0;" edge="1" parent="1" source="tCKhDqb6qx6gosObigJ4-3" target="tCKhDqb6qx6gosObigJ4-5">
          <mxGeometry width="50" height="50" relative="1" as="geometry">
            <mxPoint x="350" y="270" as="sourcePoint" />
            <mxPoint x="400" y="220" as="targetPoint" />
          </mxGeometry>
        </mxCell>
        <mxCell id="tCKhDqb6qx6gosObigJ4-14" value="Yes" style="endArrow=classic;html=1;rounded=0;exitX=1;exitY=0.5;exitDx=0;exitDy=0;" edge="1" parent="1" source="tCKhDqb6qx6gosObigJ4-5">
          <mxGeometry width="50" height="50" relative="1" as="geometry">
            <mxPoint x="350" y="270" as="sourcePoint" />
            <mxPoint x="680" y="160" as="targetPoint" />
          </mxGeometry>
        </mxCell>
        <mxCell id="tCKhDqb6qx6gosObigJ4-15" value="No" style="endArrow=classic;html=1;rounded=0;exitX=0;exitY=0.5;exitDx=0;exitDy=0;" edge="1" parent="1" source="22vK7RhumsUilptwi0Rh-4">
          <mxGeometry width="50" height="50" relative="1" as="geometry">
            <mxPoint x="350" y="270" as="sourcePoint" />
            <mxPoint x="160" y="290" as="targetPoint" />
          </mxGeometry>
        </mxCell>
        <mxCell id="tCKhDqb6qx6gosObigJ4-16" value="No" style="endArrow=classic;html=1;rounded=0;entryX=0.5;entryY=0;entryDx=0;entryDy=0;exitX=0.5;exitY=1;exitDx=0;exitDy=0;" edge="1" parent="1" source="tCKhDqb6qx6gosObigJ4-5" target="tCKhDqb6qx6gosObigJ4-7">
          <mxGeometry width="50" height="50" relative="1" as="geometry">
            <mxPoint x="350" y="270" as="sourcePoint" />
            <mxPoint x="400" y="220" as="targetPoint" />
          </mxGeometry>
        </mxCell>
        <mxCell id="tCKhDqb6qx6gosObigJ4-17" value="Out" style="endArrow=classic;html=1;rounded=0;entryX=0.5;entryY=0;entryDx=0;entryDy=0;exitX=0;exitY=0.5;exitDx=0;exitDy=0;" edge="1" parent="1" source="tCKhDqb6qx6gosObigJ4-7" target="tCKhDqb6qx6gosObigJ4-8">
          <mxGeometry x="-0.7037" width="50" height="50" relative="1" as="geometry">
            <mxPoint x="350" y="280" as="sourcePoint" />
            <mxPoint x="400" y="230" as="targetPoint" />
            <Array as="points">
              <mxPoint x="395" y="270" />
            </Array>
            <mxPoint as="offset" />
          </mxGeometry>
        </mxCell>
        <mxCell id="tCKhDqb6qx6gosObigJ4-18" value="In" style="endArrow=classic;html=1;rounded=0;entryX=0.5;entryY=0;entryDx=0;entryDy=0;exitX=1;exitY=0.5;exitDx=0;exitDy=0;" edge="1" parent="1" source="tCKhDqb6qx6gosObigJ4-7" target="tCKhDqb6qx6gosObigJ4-9">
          <mxGeometry x="-0.7037" width="50" height="50" relative="1" as="geometry">
            <mxPoint x="350" y="280" as="sourcePoint" />
            <mxPoint x="400" y="230" as="targetPoint" />
            <Array as="points">
              <mxPoint x="565" y="270" />
            </Array>
            <mxPoint as="offset" />
          </mxGeometry>
        </mxCell>
        <mxCell id="tCKhDqb6qx6gosObigJ4-19" value="" style="endArrow=classic;html=1;rounded=0;entryX=0.5;entryY=0;entryDx=0;entryDy=0;exitX=0.5;exitY=1;exitDx=0;exitDy=0;" edge="1" parent="1" source="tCKhDqb6qx6gosObigJ4-9" target="tCKhDqb6qx6gosObigJ4-11">
          <mxGeometry width="50" height="50" relative="1" as="geometry">
            <mxPoint x="350" y="290" as="sourcePoint" />
            <mxPoint x="400" y="240" as="targetPoint" />
          </mxGeometry>
        </mxCell>
        <mxCell id="tCKhDqb6qx6gosObigJ4-20" value="" style="endArrow=classic;html=1;rounded=0;entryX=0.5;entryY=0;entryDx=0;entryDy=0;exitX=0.5;exitY=1;exitDx=0;exitDy=0;" edge="1" parent="1" source="tCKhDqb6qx6gosObigJ4-8" target="tCKhDqb6qx6gosObigJ4-10">
          <mxGeometry width="50" height="50" relative="1" as="geometry">
            <mxPoint x="350" y="360" as="sourcePoint" />
            <mxPoint x="400" y="310" as="targetPoint" />
          </mxGeometry>
        </mxCell>
        <mxCell id="tCKhDqb6qx6gosObigJ4-21" value="" style="endArrow=classic;html=1;rounded=0;exitX=0.5;exitY=1;exitDx=0;exitDy=0;" edge="1" parent="1" source="tCKhDqb6qx6gosObigJ4-10">
          <mxGeometry width="50" height="50" relative="1" as="geometry">
            <mxPoint x="350" y="410" as="sourcePoint" />
            <mxPoint x="395" y="540" as="targetPoint" />
          </mxGeometry>
        </mxCell>
        <mxCell id="tCKhDqb6qx6gosObigJ4-23" value="" style="endArrow=classic;html=1;rounded=0;exitX=0.5;exitY=1;exitDx=0;exitDy=0;" edge="1" parent="1">
          <mxGeometry width="50" height="50" relative="1" as="geometry">
            <mxPoint x="564.47" y="500" as="sourcePoint" />
            <mxPoint x="564.47" y="540" as="targetPoint" />
          </mxGeometry>
        </mxCell>
        <mxCell id="tCKhDqb6qx6gosObigJ4-24" value="" style="endArrow=classic;html=1;rounded=0;entryX=0;entryY=0.5;entryDx=0;entryDy=0;" edge="1" parent="1" target="22vK7RhumsUilptwi0Rh-1">
          <mxGeometry width="50" height="50" relative="1" as="geometry">
            <mxPoint x="680" y="160" as="sourcePoint" />
            <mxPoint x="400" y="200" as="targetPoint" />
            <Array as="points">
              <mxPoint x="680" y="540" />
              <mxPoint x="160" y="540" />
              <mxPoint x="160" y="75" />
            </Array>
          </mxGeometry>
        </mxCell>
      </root>
    </mxGraphModel>
  </diagram>
</mxfile>
